<svg xmlns="http://www.w3.org/2000/svg" viewBox="0 0 100 100" width="100" height="100">
  <polygon fill="#000000" points="
    50,3
    55.85,20.58
    67.99,6.58
    66.67,25.06
    83.23,16.77
    74.95,33.33
    93.42,32.01
    79.42,44.15
    97,50
    79.42,55.85
    93.42,67.99
    74.95,66.67
    83.23,83.23
    66.67,74.95
    67.99,93.42
    55.85,79.42
    50,97
    44.15,79.42
    32.01,93.42
    33.33,74.95
    16.77,83.23
    25.06,66.67
    6.58,67.99
    20.58,55.85
    3,50
    20.58,44.15
    6.58,32.01
    25.06,33.33
    16.77,16.77
    33.33,25.06
    32.01,6.58
    44.15,20.58
  "/>
  <circle cx="50" cy="50" r="26" fill="#ffffff"/>
  <circle cx="50" cy="50" r="19" fill="#000000"/>
</svg>
